<?xml version="1.0" encoding="UTF-8" standalone="no"?>
<svg
   version="1.0"
   width="428pt"
   height="118pt"
   viewBox="0 0 428 118"
   preserveAspectRatio="xMidYMid"
   id="svg8"
   sodipodi:docname="maina-logo2.svg"
   inkscape:version="1.2.2 (1:1.2.2+202212051552+b0a8486541)"
   xmlns:inkscape="http://www.inkscape.org/namespaces/inkscape"
   xmlns:sodipodi="http://sodipodi.sourceforge.net/DTD/sodipodi-0.dtd"
   xmlns="http://www.w3.org/2000/svg"
   xmlns:svg="http://www.w3.org/2000/svg">
  <defs
     id="defs12" />
  <sodipodi:namedview
     id="namedview10"
     pagecolor="#ffffff"
     bordercolor="#000000"
     borderopacity="0.25"
     inkscape:showpageshadow="2"
     inkscape:pageopacity="0.0"
     inkscape:pagecheckerboard="0"
     inkscape:deskcolor="#d1d1d1"
     inkscape:document-units="pt"
     showgrid="false"
     inkscape:zoom="1.3808411"
     inkscape:cx="285.33333"
     inkscape:cy="227.75973"
     inkscape:window-width="1920"
     inkscape:window-height="946"
     inkscape:window-x="0"
     inkscape:window-y="0"
     inkscape:window-maximized="1"
     inkscape:current-layer="svg8" />
  <metadata
     id="metadata2">
Created by potrace 1.16, written by Peter Selinger 2001-2019
</metadata>
  <g
     transform="matrix(0.22588894,0,0,-0.22588894,-268.26677,501.88298)"
     fill="#000000"
     stroke="none"
     id="g6">
    <path
       d="m 1275,2123 c -42,-99 -89,-285 -80,-314 12,-36 33,-19 76,59 23,42 54,95 68,116 l 26,40 6,-64 c 4,-44 12,-67 24,-76 28,-21 51,-1 92,79 l 37,72 6,-37 c 14,-79 73,-100 144,-52 l 39,27 -6,-29 c -7,-38 8,-74 32,-74 11,0 43,27 75,63 48,54 55,59 56,38 0,-38 21,-99 42,-121 33,-35 75,-26 125,25 l 43,45 6,-28 c 10,-40 23,-52 59,-52 33,0 62,18 129,79 36,34 38,35 32,11 -4,-14 -9,-49 -13,-77 -10,-87 16,-68 71,51 26,57 59,114 72,127 l 24,23 13,-34 c 6,-19 23,-57 37,-85 20,-40 31,-51 53,-53 16,-2 39,4 52,12 31,20 32,20 38,-4 9,-37 43,-22 101,43 48,54 55,59 56,38 0,-38 21,-99 42,-121 32,-34 75,-26 122,23 39,40 106,152 106,176 0,20 -29,12 -41,-11 -33,-65 -101,-156 -124,-166 -22,-10 -27,-9 -41,12 -8,14 -21,59 -27,102 -7,42 -17,79 -23,81 -6,2 -37,-30 -68,-72 -32,-41 -62,-75 -67,-75 -28,0 41,163 79,188 23,15 27,15 55,-1 22,-13 33,-15 41,-7 15,15 -37,60 -69,60 -36,0 -81,-45 -120,-119 -45,-86 -89,-130 -113,-115 -9,6 -26,37 -38,69 -11,32 -31,66 -43,76 -20,17 -26,17 -50,5 -15,-8 -33,-26 -41,-40 -21,-40 -23,-24 -5,38 19,64 14,96 -10,76 -8,-7 -17,-27 -21,-45 -8,-45 -99,-161 -159,-202 -47,-33 -50,-33 -63,-16 -13,18 -13,24 4,148 6,37 4,45 -9,45 -8,0 -20,-14 -26,-31 -18,-51 -98,-165 -126,-177 -22,-10 -27,-9 -41,12 -8,14 -21,59 -27,102 -7,42 -17,79 -23,81 -6,2 -37,-30 -68,-72 -32,-41 -62,-75 -67,-75 -28,0 39,162 78,187 24,16 27,16 56,0 22,-13 33,-15 41,-7 8,8 3,18 -17,36 -51,44 -91,29 -158,-62 -46,-63 -111,-114 -145,-114 -18,0 -25,8 -33,38 -6,20 -11,51 -11,68 0,37 -22,50 -45,27 -9,-8 -35,-52 -58,-97 l -42,-81 -3,70 c -5,145 -19,148 -102,23 -33,-50 -60,-89 -60,-85 0,4 16,54 35,111 40,119 41,126 20,126 -8,0 -22,-17 -30,-37 z"
       id="path4" />
  </g>
</svg>
