<?xml version="1.0" standalone="no"?>
<!DOCTYPE svg PUBLIC "-//W3C//DTD SVG 20010904//EN"
 "http://www.w3.org/TR/2001/REC-SVG-20010904/DTD/svg10.dtd">
<svg version="1.0" xmlns="http://www.w3.org/2000/svg"
 width="449.000000pt" height="359.000000pt" viewBox="0 0 449.000000 359.000000"
 preserveAspectRatio="xMidYMid meet">
<metadata>
Created by potrace 1.16, written by Peter Selinger 2001-2019
</metadata>
<g transform="translate(0.000000,359.000000) scale(0.100000,-0.100000)"
fill="#f57600" stroke="none">
<path d="M2030 3339 c-342 -36 -674 -178 -939 -403 -193 -163 -371 -413 -451
-634 -19 -53 -28 -65 -59 -79 -94 -44 -198 -194 -238 -343 -24 -89 -24 -290 1
-380 28 -104 81 -204 141 -265 51 -52 139 -105 177 -105 12 0 29 -22 49 -62
144 -288 413 -549 723 -705 121 -61 356 -137 486 -158 745 -118 1452 215 1799
847 24 44 49 78 57 78 37 0 125 54 176 108 108 113 162 266 161 452 -1 136
-24 237 -78 339 -40 77 -119 163 -176 191 -30 16 -41 30 -59 76 -211 566 -761
972 -1412 1043 -109 12 -246 12 -358 0z m162 -143 c121 -51 147 -66 195 -113
34 -33 65 -77 86 -120 30 -63 32 -75 32 -173 -1 -94 -3 -110 -27 -155 -91
-172 -303 -236 -441 -132 -78 59 -118 180 -86 264 38 102 168 146 255 86 49
-33 91 -34 116 -4 39 50 11 103 -77 146 -48 24 -64 27 -137 23 -98 -4 -160
-30 -219 -90 -66 -68 -84 -118 -84 -233 0 -88 3 -107 27 -157 76 -163 245
-249 430 -219 156 25 278 116 346 258 l37 78 0 135 c0 126 -2 140 -29 203 -16
38 -48 95 -72 128 -24 32 -38 59 -31 59 32 0 186 -43 267 -75 417 -161 730
-459 878 -840 22 -55 42 -108 46 -118 3 -9 14 -20 23 -23 91 -28 153 -86 196
-185 34 -77 48 -150 48 -254 -1 -237 -125 -425 -282 -425 -23 0 -31 -10 -68
-86 -200 -418 -601 -723 -1075 -819 -527 -107 -1072 50 -1437 415 -133 132
-193 213 -271 367 -63 122 -63 123 -99 123 -59 0 -134 45 -179 107 -52 73 -78
144 -92 257 -10 80 -9 105 6 181 35 178 110 279 237 318 9 3 28 39 43 84 196
554 721 944 1341 996 22 2 45 4 52 5 7 1 27 -4 45 -12z"/>
<path d="M852 2185 c-65 -29 -92 -149 -92 -408 0 -246 28 -425 70 -447 30 -16
65 -12 85 10 25 27 31 76 46 347 l12 232 42 -132 c49 -157 72 -208 102 -218
40 -14 66 24 128 194 32 86 59 157 60 157 1 0 0 -93 -3 -207 -4 -214 6 -346
30 -369 25 -24 65 -27 86 -6 50 50 107 693 69 783 -32 77 -109 102 -166 54
-35 -30 -44 -53 -116 -299 -31 -105 -57 -192 -59 -194 -7 -6 -41 95 -96 278
-56 188 -77 225 -135 235 -16 3 -45 -2 -63 -10z"/>
<path d="M2998 2185 c-14 -8 -31 -29 -37 -47 -13 -42 -29 -205 -37 -399 -4
-82 -10 -146 -15 -142 -4 4 -33 76 -64 158 -151 395 -199 462 -280 393 -41
-36 -57 -149 -57 -398 1 -277 23 -411 75 -445 73 -48 103 48 113 365 3 102 8
192 11 200 3 8 24 -39 48 -105 92 -258 148 -345 220 -345 49 0 96 110 120 284
17 123 21 398 7 437 -18 47 -62 66 -104 44z"/>
<path d="M2229 2171 c-24 -19 -24 -23 -27 -218 -3 -178 8 -425 25 -526 6 -43
32 -62 69 -53 14 4 29 17 33 29 14 36 32 331 34 545 l2 194 -28 24 c-34 29
-76 31 -108 5z"/>
<path d="M1789 2107 c-97 -65 -176 -365 -154 -590 8 -90 26 -120 73 -120 57 0
72 25 72 119 0 72 3 85 19 94 28 14 116 13 129 -3 6 -7 12 -53 14 -103 l3 -89
30 0 c51 0 58 32 58 240 0 192 -12 278 -54 374 -41 97 -116 128 -190 78z m138
-147 c7 -24 16 -96 19 -162 l7 -118 -83 0 -83 0 6 98 c11 179 51 272 101 239
11 -8 26 -34 33 -57z"/>
<path d="M3409 2107 c-97 -65 -176 -365 -154 -590 8 -90 26 -120 73 -120 57 0
72 25 72 119 0 72 3 85 19 94 28 14 116 13 129 -3 6 -7 12 -53 14 -103 l3 -89
30 0 c51 0 58 32 58 240 0 192 -12 278 -54 374 -41 97 -116 128 -190 78z m138
-147 c7 -24 16 -96 19 -162 l7 -118 -83 0 -83 0 6 98 c11 179 51 272 101 239
11 -8 26 -34 33 -57z"/>
<path d="M1851 1194 c-22 -16 -23 -22 -19 -88 18 -272 319 -437 568 -310 63
32 144 118 176 188 16 34 29 84 32 121 4 54 2 65 -17 84 -47 47 -121 13 -121
-56 0 -47 -38 -128 -76 -167 -121 -119 -322 -86 -398 66 -14 29 -26 68 -26 89
0 73 -63 112 -119 73z"/>
</g>
</svg>
